<?xml version="1.0" encoding="utf-8"?>
<!-- Generated by Shoe Palace, Inc. http://www.shoepalace.com/ -->
<!DOCTYPE svg PUBLIC "-//W3C//DTD SVG 1.1//EN" "http://www.w3.org/Graphics/SVG/1.1/DTD/svg11.dtd">
<svg preserveAspectRatio="xMidYMid" width="610px" height="80px" viewBox="0 0 610 80" xmlns="http://www.w3.org/2000/svg" version="1.1" xmlns:xlink="http://www.w3.org/1999/xlink">
	<path fill="#cb2229" d="M39.898,6.268c6.9-7.499,19.5-8.198,27.5-2.099c2.9,2.099,4.9,5.199,6.1,8.598c-2.6,0.8-5.2,2-7.9,2.5c-0.8-1.699-1.7-3.5-3.1-4.798c-4.399-4.1-12.2-3.799-16.199,0.7c-2.3,2.299-3,6.1-1.7,9.099c1.4,3.299,4.601,5.199,7.601,6.799c3.799,2.199,8.199,2.899,12.099,4.898c5.4,2.799,10.8,6.499,13.9,11.798c2.4,3.999,3.3,8.899,2.6,13.498c-0.5,4.799-3,9.197-6.5,12.497c-5.099,5.101-12.4,7.897-19.499,7.599c-6.2,0.199-12.4-1.698-17.199-5.6c-4.8-3.699-8.3-9.197-8.9-15.296c0,0.101,8.099-2.5,8.199-2.5c0.5,3.999,1.899,8.198,5,10.997c4.701,4.5,11.9,5.898,18.1,4.3c5.7-1.5,10.8-5.897,12.3-11.696c0.3-3,0.5-6.199-0.8-8.898c-1.101-2.6-3.101-4.699-5.3-6.499c-3.601-2.799-7.8-4.899-12.2-6.199c-5.5-1.799-10.899-4.499-14.8-8.798C33.999,21.565,34.299,11.667,39.898,6.268 M182.595,0.27c9.4-0.9,19.2,0.4,27.6,4.699c6.2,3.2,11.8,7.898,15.9,13.598c3.299,4.599,5.399,9.898,6.1,15.497c1,8.398-0.6,17.197-5.4,24.195c-5.7,8.299-14.2,14.497-23.799,17.396c-3.601,1.1-7.3,1.699-11,2c-3.399,0.8-6.8,0-10.2-0.301c-7.1-0.899-14.1-3.299-20-7.397c-7.4-5-13.6-12.099-16.099-20.796c-2.9-9.798-1.6-20.796,4-29.395c4.5-6.8,11-12.198,18.399-15.598C172.596,2.068,177.596,0.869,182.595,0.27 M183.396,7.868c-10.5,1.1-20.299,7.098-26.1,15.896c-6.1,9.398-5.799,22.396,0.9,31.494c5.2,7.1,13.099,12.297,21.699,13.997c7.7,1.499,15.899,1,23.2-1.899c5.899-2.5,11.1-6.498,15-11.496c4.299-5.601,6.3-12.898,5.5-19.797c-0.5-6.599-3.7-12.798-8.3-17.396c-5-5.2-11.599-8.798-18.7-10.199C192.295,7.467,187.795,7.667,183.396,7.868 M131.797,1.869c2.8,0,5.7,0,8.5,0c0,25.295,0.1,50.69,0,75.985c-2.8,0-5.7,0-8.5,0c-0.1-11.397,0-22.896,0-34.293c-12.7,0-25.399-0.101-38,0.101c0.1,11.298,0,22.595,0,33.894c-2.9,0.1-5.8,0.1-8.7,0c0-24.994,0-50.09,0-75.085c0.1-0.1,0.3-0.4,0.5-0.5c2.6,0,5.2,0,7.8,0c0.6,0.3,0.4,1.1,0.5,1.6c0,10.798,0,21.597,0,32.395c12.7,0,25.399,0,38.1,0C131.697,24.565,131.697,13.267,131.797,1.869 M236.994,3.168c-0.101-0.5,0.2-1.4,0.8-1.3c14.8,0,29.599,0,44.399,0c0,2.5,0,5.099,0,7.599c-12.1,0-24.2,0-36.299,0c-0.1,6.298,0,12.499-0.1,18.797c0.1,2.499-0.1,5.099,0.1,7.698c12.1-0.1,24.199,0,36.299,0c0,2.6,0.1,5.2,0,7.699c-12.1-0.101-24.2,0-36.399,0c0,8.499,0,17.096,0,25.595c-0.2,0.801,0.7,0.9,1.3,0.801c11.7,0,23.399,0,35.1,0c0.1,2.498,0,4.998,0,7.498c-11.101,0-22.2,0-33.3,0c-4-0.101-7.899,0.1-11.899-0.101C236.894,52.76,236.994,27.964,236.994,3.168"/>
	<path fill="#000000" d="M537.688,68.855c5.898-1.699,11.1-5.398,15.3-9.897c2.2,1.399,4.3,2.899,6.198,4.599c-5.799,6.5-13.499,11.498-22.1,13.299c-2.898,0.6-5.898,0.799-8.8,0.699c-7.099,0.1-14.199-2.1-20.099-6c-4.801-3.197-9.102-7.298-12.102-12.197c-4.699-7.396-6.3-16.396-5.5-24.995c0.7-6.599,3.2-12.897,7.102-18.097c3.898-5.298,9-9.798,15-12.597c7.698-3.399,16.397-4.499,24.498-2.6c6,1.3,11.5,4.199,16.5,7.799c-1.399,2.199-3.398,3.898-5.199,5.698c-4.6-3.299-9.799-5.798-15.499-6.398c-4.001-0.7-8.102-0.2-12,0.799c-6.601,1.6-12.5,5.699-16.6,11.099c-4.102,5.299-6.7,11.897-6.399,18.596c-0.301,6.698,1.999,13.498,6,18.896c5.099,6.6,12.699,11.498,21.098,12.299C529.387,69.956,533.688,70.156,537.688,68.855 M609.885,69.855c-10.7,0-21.398,0.101-32.1,0c0-8.698-0.1-17.496,0-26.194c10.7-0.101,21.398,0,32.1,0c0-2.601,0-5.199,0-7.799c-10.7,0-21.499,0-32.199,0c0.101-8.798,0-17.696,0.101-26.595c10.7,0.1,21.398,0.1,32.1,0c0-2.5,0-4.899,0-7.398c-13.301,0.1-26.499,0-39.8,0.1c0,25.296,0,50.59,0,75.986c13.301,0,26.499,0,39.8,0C609.984,75.255,610.084,72.555,609.885,69.855 M398.29,69.756c-0.2-2.199,0-4.398-0.1-6.599c0-20.496,0.1-40.892,0-61.389c-2.5-0.1-5.102-0.1-7.602,0c-0.1,21.196,0.102,75.786,0.102,75.786c11.6-0.101,23.299-0.199,34.999-0.101c0,0,0-5.099-0.102-7.798C416.489,69.756,407.39,69.656,398.29,69.756 M338.091,39.862c-4,6.799-10.999,11.898-18.897,12.699c-4.602,0.101-9.2,0-13.7,0.101c-0.101,8.297,0,16.696,0,25.094c-2.5,0-5,0-7.399,0c0-25.094,0-50.29,0-75.385c7.399,0,14.899-0.1,22.3,0c10.301,1.6,18.898,10.298,20.698,20.497C341.691,28.564,341.091,34.762,338.091,39.862 M316.192,45.061c9.3,0,17.897-8.498,17.299-17.896c0.6-8.799-7.199-16.897-15.799-17.598c-4.102,0-8.2,0-12.301,0c0.101,11.798,0,23.596,0,35.394C308.992,45.061,312.593,45.061,316.192,45.061 M370.49,2.668c3,0,6,0.1,9,0c0.1,24.896,0,49.89-0.101,74.786c-2.301,0-4.601,0-6.898,0c-0.102-7.798-0.102-15.597-0.201-23.396c-4.099-0.199-8.199-0.101-12.299-0.101c-4.8,0-9.601-0.101-14.4,0c-4.398,6.498-14.799,21.996-15.698,23.595c-2.699,0-5.601,0.2-8.399,0.2c1.1-2.397,33.299-51.689,47.998-74.286C369.79,3.068,370.09,2.668,370.49,2.668 M372.09,33.063c-0.1-1.8,0.301-3.699,0.301-5.499c0-3.399,0-6.699,0-10.099c-0.899,0-1.801,0-2.699,0c-2.799,4.1-5.3,8.299-8.101,12.297c-3.6,5.699-7.5,11.298-10.898,17.097c3.1,0.101,6.3,0,9.398,0.101c4-0.101,8,0.2,11.999-0.101C371.99,42.161,372.19,37.662,372.09,33.063 M475.89,2.769c3.198-0.1,6.499-0.1,9.799,0c0,21.097-0.102,42.192,0,63.288c-0.102,3.699,0.1,7.398-0.102,11.098c-2.3,0.101-4.598,0.201-6.897-0.1c0-5.898,0-11.799,0-17.697c0-1.799,0.1-3.599-0.301-5.397c-0.801-0.399-1.899-0.2-2.8-0.3c-7.899,0-15.801-0.102-23.601,0c-5.4,7.998-10.798,15.896-16.199,23.895c-2.7,0.301-5.5,0-8.2,0.102c1-2.499,2.801-4.499,4.102-6.699C446.389,48.26,461.188,25.565,475.89,2.769 M478.389,24.365c0.199-2.399,0.301-4.699,0-7.099c-0.899,0-1.699-0.1-2.6-0.1c-0.3,0.5-0.701,0.899-1.001,1.299c-4.399,6.799-8.8,13.597-13.2,20.396c-1.6,2.6-3.499,5-4.8,7.7c6.601,0.101,13.201,0,19.8,0.101c0.5-0.101,1.4,0.2,1.5-0.601c0.301-3.699,0.102-7.3,0.2-10.999C478.389,31.563,478.288,27.964,478.389,24.365 M17.5,2.068H15v75.586h2.5V2.068z"/>
</svg>
